<?xml version="1.0" standalone="no"?>
<!DOCTYPE svg PUBLIC "-//W3C//DTD SVG 20010904//EN"
 "http://www.w3.org/TR/2001/REC-SVG-20010904/DTD/svg10.dtd">
<svg version="1.0" xmlns="http://www.w3.org/2000/svg"
 width="700.000000pt" height="700.000000pt" viewBox="0 0 700.000000 700.000000"
 preserveAspectRatio="xMidYMid meet">
<metadata>
Created by potrace 1.14, written by Peter Selinger 2001-2017
</metadata>
<g transform="translate(0.000000,700.000000) scale(0.100000,-0.100000)"
fill="#000000" stroke="none">
<path d="M3265 6409 c-130 -12 -251 -27 -285 -34 -3 -1 -25 -5 -50 -9 -90 -16
-247 -58 -345 -92 -55 -20 -109 -38 -120 -42 -49 -14 -283 -138 -377 -200
-397 -263 -707 -675 -862 -1147 -64 -197 -61 -149 -61 -1100 l0 -870 138 -220
c76 -121 405 -645 730 -1165 l592 -945 875 -3 875 -3 98 158 c54 87 218 349
364 583 146 234 334 535 418 670 84 135 249 398 366 585 l214 341 -1 884 c-1
878 -1 886 -23 968 -138 523 -483 999 -930 1287 -207 133 -510 255 -746 300
-114 22 -189 34 -245 40 -36 4 -78 9 -95 12 -49 7 -454 9 -530 2z"/>
</g>
</svg>
