<?xml version="1.0" standalone="no"?>
<!DOCTYPE svg PUBLIC "-//W3C//DTD SVG 20010904//EN"
 "http://www.w3.org/TR/2001/REC-SVG-20010904/DTD/svg10.dtd">
<svg version="1.0" xmlns="http://www.w3.org/2000/svg"
 width="512.000000pt" height="512.000000pt" viewBox="0 0 512.000000 512.000000"
 preserveAspectRatio="xMidYMid meet">
<metadata>
Created by potrace 1.14, written by Peter Selinger 2001-2017
</metadata>
<g transform="translate(0.000000,512.000000) scale(0.100000,-0.100000)"
fill="#000000" stroke="none">
<path d="M2574 3753 l1 -918 -252 -3 -253 -2 0 -36 c0 -68 -57 -136 -124 -148
-55 -10 -119 22 -145 73 -12 22 -21 56 -21 76 l0 35 -75 0 -75 0 0 -475 0
-475 -180 0 -180 0 2 1035 3 1034 -23 -37 c-70 -112 -131 -260 -181 -437 l-31
-110 2 -600 3 -600 54 -85 c94 -148 290 -439 411 -610 132 -188 492 -691 632
-885 l94 -130 320 -2 319 -3 285 397 c711 990 720 1004 710 1023 -6 12 -10
385 -10 1041 l0 1022 -22 36 c-85 140 -256 321 -403 426 -232 167 -546 275
-797 275 l-64 0 0 -917z m-194 -1999 c0 -2 -30 -4 -67 -4 l-68 1 35 28 34 29
33 -25 c18 -14 33 -27 33 -29z m190 -374 l0 -40 -267 2 -268 3 -3 38 -3 37
270 0 271 0 0 -40z"/>
</g>
</svg>
